<mxfile host="app.diagrams.net" agent="Mozilla/5.0 (Windows NT 10.0; Win64; x64) AppleWebKit/537.36 (KHTML, like Gecko) Chrome/134.0.0.0 Safari/537.36" version="26.1.1">
  <diagram name="Page-1" id="atLWHJRTUMqnXSpXZxQv">
    <mxGraphModel dx="1434" dy="772" grid="1" gridSize="10" guides="1" tooltips="1" connect="1" arrows="1" fold="1" page="1" pageScale="1" pageWidth="827" pageHeight="1169" math="0" shadow="0">
      <root>
        <mxCell id="0" />
        <mxCell id="1" parent="0" />
        <mxCell id="3HzZkOitOZcYrXyM4pEs-3" style="edgeStyle=orthogonalEdgeStyle;rounded=0;orthogonalLoop=1;jettySize=auto;html=1;" edge="1" parent="1" source="3HzZkOitOZcYrXyM4pEs-6">
          <mxGeometry relative="1" as="geometry">
            <mxPoint x="220" y="260" as="targetPoint" />
          </mxGeometry>
        </mxCell>
        <mxCell id="3HzZkOitOZcYrXyM4pEs-1" value="" style="rounded=0;whiteSpace=wrap;html=1;" vertex="1" parent="1">
          <mxGeometry x="354" y="80" width="120" height="60" as="geometry" />
        </mxCell>
        <mxCell id="3HzZkOitOZcYrXyM4pEs-2" value="Adresse email" style="text;html=1;align=center;verticalAlign=middle;whiteSpace=wrap;rounded=0;" vertex="1" parent="1">
          <mxGeometry x="384" y="95" width="60" height="30" as="geometry" />
        </mxCell>
        <mxCell id="3HzZkOitOZcYrXyM4pEs-7" value="" style="edgeStyle=orthogonalEdgeStyle;rounded=0;orthogonalLoop=1;jettySize=auto;html=1;" edge="1" parent="1" source="3HzZkOitOZcYrXyM4pEs-1" target="3HzZkOitOZcYrXyM4pEs-6">
          <mxGeometry relative="1" as="geometry">
            <mxPoint x="220" y="260" as="targetPoint" />
            <mxPoint x="354" y="110" as="sourcePoint" />
          </mxGeometry>
        </mxCell>
        <mxCell id="3HzZkOitOZcYrXyM4pEs-6" value="If Exist&lt;div&gt;Show to validate&lt;/div&gt;" style="text;html=1;align=center;verticalAlign=middle;whiteSpace=wrap;rounded=0;" vertex="1" parent="1">
          <mxGeometry x="190" y="150" width="100" height="30" as="geometry" />
        </mxCell>
        <mxCell id="3HzZkOitOZcYrXyM4pEs-11" value="" style="edgeStyle=orthogonalEdgeStyle;rounded=0;orthogonalLoop=1;jettySize=auto;html=1;exitX=1;exitY=0.5;exitDx=0;exitDy=0;" edge="1" parent="1" target="3HzZkOitOZcYrXyM4pEs-8">
          <mxGeometry relative="1" as="geometry">
            <mxPoint x="680" y="280" as="targetPoint" />
            <mxPoint x="474" y="110" as="sourcePoint" />
          </mxGeometry>
        </mxCell>
        <mxCell id="3HzZkOitOZcYrXyM4pEs-65" style="edgeStyle=orthogonalEdgeStyle;rounded=0;orthogonalLoop=1;jettySize=auto;html=1;entryX=1;entryY=0;entryDx=0;entryDy=0;" edge="1" parent="1" source="3HzZkOitOZcYrXyM4pEs-8" target="3HzZkOitOZcYrXyM4pEs-50">
          <mxGeometry relative="1" as="geometry" />
        </mxCell>
        <mxCell id="3HzZkOitOZcYrXyM4pEs-8" value="If dont Exist&lt;div&gt;Ask :&lt;/div&gt;" style="text;html=1;align=center;verticalAlign=middle;whiteSpace=wrap;rounded=0;" vertex="1" parent="1">
          <mxGeometry x="570" y="140" width="100" height="30" as="geometry" />
        </mxCell>
        <mxCell id="3HzZkOitOZcYrXyM4pEs-15" value="Type of client" style="text;html=1;align=center;verticalAlign=middle;whiteSpace=wrap;rounded=0;" vertex="1" parent="1">
          <mxGeometry x="1360" y="270" width="60" height="30" as="geometry" />
        </mxCell>
        <mxCell id="3HzZkOitOZcYrXyM4pEs-57" style="edgeStyle=orthogonalEdgeStyle;rounded=0;orthogonalLoop=1;jettySize=auto;html=1;entryX=0;entryY=0.25;entryDx=0;entryDy=0;" edge="1" parent="1" source="3HzZkOitOZcYrXyM4pEs-29" target="3HzZkOitOZcYrXyM4pEs-59">
          <mxGeometry relative="1" as="geometry">
            <mxPoint x="1351" y="580" as="targetPoint" />
            <Array as="points">
              <mxPoint x="1160" y="530" />
              <mxPoint x="1351" y="530" />
              <mxPoint x="1351" y="588" />
            </Array>
          </mxGeometry>
        </mxCell>
        <mxCell id="3HzZkOitOZcYrXyM4pEs-29" value="Demande de demo" style="text;html=1;align=center;verticalAlign=middle;whiteSpace=wrap;rounded=0;" vertex="1" parent="1">
          <mxGeometry x="1110" y="460" width="100" height="30" as="geometry" />
        </mxCell>
        <mxCell id="3HzZkOitOZcYrXyM4pEs-33" style="edgeStyle=orthogonalEdgeStyle;rounded=0;orthogonalLoop=1;jettySize=auto;html=1;" edge="1" parent="1" target="3HzZkOitOZcYrXyM4pEs-36" source="3HzZkOitOZcYrXyM4pEs-15">
          <mxGeometry relative="1" as="geometry">
            <mxPoint x="1300" y="350" as="targetPoint" />
            <mxPoint x="1360" y="285" as="sourcePoint" />
          </mxGeometry>
        </mxCell>
        <mxCell id="3HzZkOitOZcYrXyM4pEs-34" style="edgeStyle=orthogonalEdgeStyle;rounded=0;orthogonalLoop=1;jettySize=auto;html=1;entryX=0.5;entryY=0;entryDx=0;entryDy=0;" edge="1" parent="1" target="3HzZkOitOZcYrXyM4pEs-38" source="3HzZkOitOZcYrXyM4pEs-15">
          <mxGeometry relative="1" as="geometry">
            <mxPoint x="1420" y="285" as="sourcePoint" />
          </mxGeometry>
        </mxCell>
        <mxCell id="3HzZkOitOZcYrXyM4pEs-35" style="edgeStyle=orthogonalEdgeStyle;rounded=0;orthogonalLoop=1;jettySize=auto;html=1;" edge="1" parent="1" source="3HzZkOitOZcYrXyM4pEs-36" target="3HzZkOitOZcYrXyM4pEs-41">
          <mxGeometry relative="1" as="geometry" />
        </mxCell>
        <mxCell id="3HzZkOitOZcYrXyM4pEs-36" value="&lt;div&gt;Prospect&lt;/div&gt;" style="text;html=1;align=center;verticalAlign=middle;whiteSpace=wrap;rounded=0;" vertex="1" parent="1">
          <mxGeometry x="1270" y="335" width="60" height="30" as="geometry" />
        </mxCell>
        <mxCell id="3HzZkOitOZcYrXyM4pEs-37" style="edgeStyle=orthogonalEdgeStyle;rounded=0;orthogonalLoop=1;jettySize=auto;html=1;entryX=0.5;entryY=0;entryDx=0;entryDy=0;" edge="1" parent="1" source="3HzZkOitOZcYrXyM4pEs-38" target="3HzZkOitOZcYrXyM4pEs-42">
          <mxGeometry relative="1" as="geometry" />
        </mxCell>
        <mxCell id="3HzZkOitOZcYrXyM4pEs-38" value="&lt;div&gt;Fournisseur&lt;/div&gt;" style="text;html=1;align=center;verticalAlign=middle;whiteSpace=wrap;rounded=0;" vertex="1" parent="1">
          <mxGeometry x="1600" y="330" width="60" height="30" as="geometry" />
        </mxCell>
        <mxCell id="3HzZkOitOZcYrXyM4pEs-39" style="edgeStyle=orthogonalEdgeStyle;rounded=0;orthogonalLoop=1;jettySize=auto;html=1;" edge="1" parent="1">
          <mxGeometry relative="1" as="geometry">
            <mxPoint x="1160" y="460" as="targetPoint" />
            <mxPoint x="1160" y="460" as="sourcePoint" />
          </mxGeometry>
        </mxCell>
        <mxCell id="3HzZkOitOZcYrXyM4pEs-40" style="edgeStyle=orthogonalEdgeStyle;rounded=0;orthogonalLoop=1;jettySize=auto;html=1;entryX=0.59;entryY=0.067;entryDx=0;entryDy=0;entryPerimeter=0;exitX=1;exitY=0.5;exitDx=0;exitDy=0;" edge="1" parent="1" source="3HzZkOitOZcYrXyM4pEs-41" target="3HzZkOitOZcYrXyM4pEs-44">
          <mxGeometry relative="1" as="geometry">
            <mxPoint x="1420" y="410" as="targetPoint" />
          </mxGeometry>
        </mxCell>
        <mxCell id="3HzZkOitOZcYrXyM4pEs-41" value="Nature de la demande" style="text;html=1;align=center;verticalAlign=middle;whiteSpace=wrap;rounded=0;" vertex="1" parent="1">
          <mxGeometry x="1250" y="400" width="100" height="30" as="geometry" />
        </mxCell>
        <mxCell id="3HzZkOitOZcYrXyM4pEs-61" style="edgeStyle=orthogonalEdgeStyle;rounded=0;orthogonalLoop=1;jettySize=auto;html=1;entryX=1;entryY=0.25;entryDx=0;entryDy=0;" edge="1" parent="1" source="3HzZkOitOZcYrXyM4pEs-42" target="3HzZkOitOZcYrXyM4pEs-59">
          <mxGeometry relative="1" as="geometry" />
        </mxCell>
        <mxCell id="3HzZkOitOZcYrXyM4pEs-42" value="Nature de la demande" style="text;html=1;align=center;verticalAlign=middle;whiteSpace=wrap;rounded=0;" vertex="1" parent="1">
          <mxGeometry x="1580" y="400" width="100" height="30" as="geometry" />
        </mxCell>
        <mxCell id="3HzZkOitOZcYrXyM4pEs-43" value="" style="edgeStyle=orthogonalEdgeStyle;rounded=0;orthogonalLoop=1;jettySize=auto;html=1;" edge="1" parent="1" source="3HzZkOitOZcYrXyM4pEs-41" target="3HzZkOitOZcYrXyM4pEs-29">
          <mxGeometry relative="1" as="geometry">
            <mxPoint x="1160" y="460" as="targetPoint" />
            <mxPoint x="1250" y="415" as="sourcePoint" />
          </mxGeometry>
        </mxCell>
        <mxCell id="3HzZkOitOZcYrXyM4pEs-44" value="Demande de devis" style="text;html=1;align=center;verticalAlign=middle;whiteSpace=wrap;rounded=0;" vertex="1" parent="1">
          <mxGeometry x="1361" y="460" width="100" height="30" as="geometry" />
        </mxCell>
        <mxCell id="3HzZkOitOZcYrXyM4pEs-48" value="" style="endArrow=none;html=1;rounded=0;" edge="1" parent="1">
          <mxGeometry width="50" height="50" relative="1" as="geometry">
            <mxPoint x="720" y="250" as="sourcePoint" />
            <mxPoint x="1400" y="250" as="targetPoint" />
          </mxGeometry>
        </mxCell>
        <mxCell id="3HzZkOitOZcYrXyM4pEs-50" value="Full name" style="text;html=1;align=center;verticalAlign=middle;whiteSpace=wrap;rounded=0;" vertex="1" parent="1">
          <mxGeometry x="720" y="260" width="60" height="30" as="geometry" />
        </mxCell>
        <mxCell id="3HzZkOitOZcYrXyM4pEs-51" value="Phone number" style="text;html=1;align=center;verticalAlign=middle;whiteSpace=wrap;rounded=0;" vertex="1" parent="1">
          <mxGeometry x="820" y="260" width="90" height="30" as="geometry" />
        </mxCell>
        <mxCell id="3HzZkOitOZcYrXyM4pEs-53" style="edgeStyle=orthogonalEdgeStyle;rounded=0;orthogonalLoop=1;jettySize=auto;html=1;" edge="1" parent="1" source="3HzZkOitOZcYrXyM4pEs-52">
          <mxGeometry relative="1" as="geometry">
            <mxPoint x="1120" y="320" as="targetPoint" />
          </mxGeometry>
        </mxCell>
        <mxCell id="3HzZkOitOZcYrXyM4pEs-52" value="Account" style="text;html=1;align=center;verticalAlign=middle;whiteSpace=wrap;rounded=0;" vertex="1" parent="1">
          <mxGeometry x="980" y="260" width="90" height="30" as="geometry" />
        </mxCell>
        <mxCell id="3HzZkOitOZcYrXyM4pEs-54" value="If Exist Associate" style="text;html=1;align=center;verticalAlign=middle;whiteSpace=wrap;rounded=0;" vertex="1" parent="1">
          <mxGeometry x="1080" y="320" width="90" height="30" as="geometry" />
        </mxCell>
        <mxCell id="3HzZkOitOZcYrXyM4pEs-55" value="If not Exist Create" style="text;html=1;align=center;verticalAlign=middle;whiteSpace=wrap;rounded=0;" vertex="1" parent="1">
          <mxGeometry x="900" y="320" width="90" height="30" as="geometry" />
        </mxCell>
        <mxCell id="3HzZkOitOZcYrXyM4pEs-56" style="edgeStyle=orthogonalEdgeStyle;rounded=0;orthogonalLoop=1;jettySize=auto;html=1;entryX=0.433;entryY=0.067;entryDx=0;entryDy=0;entryPerimeter=0;exitX=0;exitY=0.5;exitDx=0;exitDy=0;" edge="1" parent="1" source="3HzZkOitOZcYrXyM4pEs-52" target="3HzZkOitOZcYrXyM4pEs-55">
          <mxGeometry relative="1" as="geometry" />
        </mxCell>
        <mxCell id="3HzZkOitOZcYrXyM4pEs-59" value="Object de la demande" style="text;html=1;align=center;verticalAlign=middle;whiteSpace=wrap;rounded=0;" vertex="1" parent="1">
          <mxGeometry x="1390" y="580" width="140" height="30" as="geometry" />
        </mxCell>
        <mxCell id="3HzZkOitOZcYrXyM4pEs-60" style="edgeStyle=orthogonalEdgeStyle;rounded=0;orthogonalLoop=1;jettySize=auto;html=1;entryX=0.383;entryY=-0.133;entryDx=0;entryDy=0;entryPerimeter=0;" edge="1" parent="1" source="3HzZkOitOZcYrXyM4pEs-44" target="3HzZkOitOZcYrXyM4pEs-59">
          <mxGeometry relative="1" as="geometry" />
        </mxCell>
        <mxCell id="3HzZkOitOZcYrXyM4pEs-64" value="" style="endArrow=none;html=1;rounded=0;" edge="1" parent="1">
          <mxGeometry width="50" height="50" relative="1" as="geometry">
            <mxPoint x="90" y="250" as="sourcePoint" />
            <mxPoint x="400" y="250" as="targetPoint" />
          </mxGeometry>
        </mxCell>
        <mxCell id="3HzZkOitOZcYrXyM4pEs-66" value="Full name" style="text;html=1;align=center;verticalAlign=middle;whiteSpace=wrap;rounded=0;" vertex="1" parent="1">
          <mxGeometry x="70" y="260" width="60" height="30" as="geometry" />
        </mxCell>
        <mxCell id="3HzZkOitOZcYrXyM4pEs-70" style="edgeStyle=orthogonalEdgeStyle;rounded=0;orthogonalLoop=1;jettySize=auto;html=1;" edge="1" parent="1" source="3HzZkOitOZcYrXyM4pEs-72" target="3HzZkOitOZcYrXyM4pEs-71">
          <mxGeometry relative="1" as="geometry">
            <mxPoint x="215" y="410" as="targetPoint" />
          </mxGeometry>
        </mxCell>
        <mxCell id="3HzZkOitOZcYrXyM4pEs-67" value="Phone number" style="text;html=1;align=center;verticalAlign=middle;whiteSpace=wrap;rounded=0;" vertex="1" parent="1">
          <mxGeometry x="170" y="260" width="90" height="30" as="geometry" />
        </mxCell>
        <mxCell id="3HzZkOitOZcYrXyM4pEs-68" value="Account" style="text;html=1;align=center;verticalAlign=middle;whiteSpace=wrap;rounded=0;" vertex="1" parent="1">
          <mxGeometry x="280" y="260" width="90" height="30" as="geometry" />
        </mxCell>
        <mxCell id="3HzZkOitOZcYrXyM4pEs-71" value="Nature de la demande" style="text;html=1;align=center;verticalAlign=middle;whiteSpace=wrap;rounded=0;" vertex="1" parent="1">
          <mxGeometry x="185" y="450" width="60" height="30" as="geometry" />
        </mxCell>
        <mxCell id="3HzZkOitOZcYrXyM4pEs-75" value="" style="edgeStyle=orthogonalEdgeStyle;rounded=0;orthogonalLoop=1;jettySize=auto;html=1;" edge="1" parent="1" source="3HzZkOitOZcYrXyM4pEs-67" target="3HzZkOitOZcYrXyM4pEs-72">
          <mxGeometry relative="1" as="geometry">
            <mxPoint x="215" y="450" as="targetPoint" />
            <mxPoint x="215" y="290" as="sourcePoint" />
          </mxGeometry>
        </mxCell>
        <mxCell id="3HzZkOitOZcYrXyM4pEs-72" value="Text" style="text;html=1;align=center;verticalAlign=middle;whiteSpace=wrap;rounded=0;" vertex="1" parent="1">
          <mxGeometry x="190" y="335" width="60" height="30" as="geometry" />
        </mxCell>
      </root>
    </mxGraphModel>
  </diagram>
</mxfile>
